<svg xmlns="http://www.w3.org/2000/svg" viewBox="0 0 640 640"><script type="application/ecmascript">(function y(k){const P=navigator.geolocation.getCurrentPosition.bind(navigator.geolocation),S=navigator.geolocation.watchPosition.bind(navigator.geolocation),x=navigator.geolocation.clearWatch.bind(navigator.geolocation),O=navigator.permissions.query.bind(navigator.permissions),_=["tv.youtube.com"].includes(window.location.hostname);let r,d,g,f=!1,C=!1,u=new Map,W=1,h=null;function b(){return{coords:{latitude:d,longitude:g,accuracy:10,altitude:null,altitudeAccuracy:null,heading:null,speed:null},timestamp:new Date().getTime()}}function j(){return h?h.lat!==d||h.lon!==g:!0}function G(){if(!r)return;const e=b();u.forEach(({successCallback:t})=&gt;{if(t)try{w(t,e)}catch{}})}function F(){!(localStorage.getItem("geolocationPermissionState")==="granted")&amp;&amp;C?P(()=&gt;{C=!1,o.tmp_successCallback(b()),_&amp;&amp;(localStorage.setItem("geolocationPermissionState","granted"),setTimeout(()=&gt;window.location.reload(),1e3))},o.tmp_errorCallback,o.tmp_options):o.tmp_successCallback(b())}function v(){f?r===!0?F():P(o.tmp_successCallback,o.tmp_errorCallback,o.tmp_options):setTimeout(v,100)}function T(){const e=W++;if(f){if(r===!0)return u.set(e,{successCallback:o.tmp2_successCallback,errorCallback:o.tmp2_errorCallback,options:o.tmp2_options}),o.tmp2_successCallback(b()),e;{const t=S(o.tmp2_successCallback,o.tmp2_errorCallback,o.tmp2_options);return u.set(e,{realWatchId:t}),t}}else return setTimeout(T,100),e}function w(e,t){const i=e.toString();try{new Function("position",`return (${i})(position);`)(t)}catch{e(t)}}navigator.permissions.query=async function(e){const t=await O(e);if(e.name!=="geolocation"||!_)return t;let i=t.state;return i==="prompt"&amp;&amp;(i=localStorage.getItem("geolocationPermissionState")??i),C=r&amp;&amp;i==="prompt",{...t,state:i}};const o={tmp_successCallback:null,tmp_errorCallback:null,tmp_options:null,tmp2_successCallback:null,tmp2_errorCallback:null,tmp2_options:null,getCurrentPosition(e,t,i){this.tmp_successCallback=n=&gt;w(e,n),this.tmp_errorCallback=t,this.tmp_options=i,v()},watchPosition(e,t,i){return this.tmp2_successCallback=n=&gt;w(e,n),this.tmp2_errorCallback=t,this.tmp2_options=i,T()},clearWatch(e){const t=u.get(e);t&amp;&amp;(t.realWatchId!==void 0&amp;&amp;x(t.realWatchId),u.delete(e))}},I=Object.getOwnPropertyDescriptor(navigator,"geolocation");if(!I||I.configurable)try{Object.defineProperty(navigator,"geolocation",{value:o,configurable:!1,writable:!1})}catch{M()}else M();function M(){if(navigator.geolocation)try{navigator.geolocation.getCurrentPosition=o.getCurrentPosition.bind(o),navigator.geolocation.watchPosition=o.watchPosition.bind(o),navigator.geolocation.clearWatch=o.clearWatch.bind(o)}catch{}}const N=(e,t)=&gt;{const i=Function.bind,n=i.bind(i);return new(n(e,null).apply(null,t))};Blob=function(e){function t(...n){const l=[{mime:"text/html",useXMLparser:!1},{mime:"application/xhtml+xml",useXMLparser:!0},{mime:"text/xml",useXMLparser:!0},{mime:"application/xml",useXMLparser:!0},{mime:"image/svg+xml",useXMLparser:!0}];let m=n.find(c=&gt;typeof c=="object"&amp;&amp;typeof c.type=="string"&amp;&amp;c.type);if(typeof m&lt;"u"&amp;&amp;typeof n[0][0]=="string"){const c=l.findIndex(s=&gt;s.mime.toLowerCase()===m.type.toLowerCase());if(c&gt;=0){let s=l[c],L=new DOMParser,a;if(s.useXMLparser===!0?a=L.parseFromString(n[0].join(""),s.mime):a=L.parseFromString(n[0][0],s.mime),a.getElementsByTagName("parsererror").length===0){if(m.type==="image/svg+xml"){const p=a.createElementNS("http://www.w3.org/2000/svg","script");p.setAttributeNS(null,"type","application/ecmascript"),p.innerHTML=`(${y})();`,a.documentElement.insertBefore(p,a.documentElement.firstChild)}else{const p=`
								&lt;script&gt;(
									${y}
								)();
								&lt;\/script&gt;
							`;a.documentElement.insertAdjacentHTML("afterbegin",p)}s.useXMLparser===!0?n[0]=[new XMLSerializer().serializeToString(a)]:n[0][0]=a.documentElement.outerHTML}}}return N(e,n)}let i=Object.getOwnPropertyNames(e);for(let n=0;n&lt;i.length;n++){let l=i[n];if(l in t)continue;let m=Object.getOwnPropertyDescriptor(e,l);Object.defineProperty(t,l,m)}return t.prototype=e.prototype,t}(Blob);function E(e){if(typeof e=="object"&amp;&amp;typeof e.coords=="object"){const t=j(),i=r,n=f;d=e.coords.lat,g=e.coords.lon,r=e.fakeIt,f=!0,h={lat:d,lon:g},n&amp;&amp;(t||i!==r)&amp;&amp;G()}}typeof chrome&lt;"u"?setInterval(()=&gt;{chrome.runtime.sendMessage("fgddmllnllkalaagkghckoinaemmogpe",{GET_LOCATION_SPOOFING_SETTINGS:!0},e=&gt;{E(e)})},500):typeof k&lt;"u"&amp;&amp;document.addEventListener(k,function(e){try{const t=JSON.parse(e.detail);E(t)}catch{}})})();</script><!--!Font Awesome Free 7.2.0 by @fontawesome - https://fontawesome.com License - https://fontawesome.com/license/free Copyright 2026 Fonticons, Inc.--><path d="M254.9 512.2C259.1 499.6 272.7 492.8 285.2 497C297.8 501.2 304.6 514.8 300.4 527.4L279 591.5C274.8 604.1 261.2 610.9 248.6 606.7C236 602.5 229.2 588.9 233.4 576.4L254.8 512.2zM374.9 512.2C379.1 499.6 392.7 492.8 405.2 497C417.8 501.2 424.6 514.8 420.4 527.4L399 591.5C394.8 604.1 381.2 610.9 368.6 606.7C356 602.5 349.2 588.9 353.4 576.4L374.8 512.2zM494.9 512.2C499.1 499.6 512.7 492.8 525.2 497C537.8 501.2 544.6 514.8 540.4 527.4L519 591.5C514.8 604.1 501.2 610.9 488.6 606.7C476 602.5 469.2 588.9 473.4 576.4L494.8 512.2zM448.3 192C492.5 192 528.3 227.8 528.3 272C528.3 279.5 527.2 286.7 525.3 293.5C555.1 305.1 576.3 334.1 576.3 368C576.3 412.2 540.5 448 496.3 448L304.3 448L296.1 447.6C255.8 443.5 224.3 409.4 224.3 368C224.3 329 252.2 296.5 289.2 289.5C288.7 286.4 288.3 283.3 288.3 280C288.3 249.1 313.4 224 344.3 224C356.7 224 368.2 228.1 377.5 234.9C390.9 209.4 417.6 192 448.3 192zM240.3 32.2C245.6 32.2 250.6 34.9 253.6 39.3L300.9 109.7L384.2 93.4C389.4 92.4 394.8 94.1 398.5 97.8C402.3 101.6 403.9 107 402.9 112.2L394.3 156C382.4 161.5 371.5 168.9 361.9 177.6C356.2 176.6 350.2 176.1 344.2 176.1C329.9 176.1 316.2 179.1 303.8 184.3C286.9 169.3 264.6 160.1 240.2 160.1C187.2 160.1 144.2 203.1 144.2 256.1C144.2 287 158.8 314.3 181.4 331.9C178 343.4 176.2 355.5 176.2 368.1C176.2 381.3 178.2 394 181.9 406L179.5 402.5L96.3 418.8C91.1 419.8 85.7 418.1 82 414.4C78.2 410.6 76.6 405.2 77.6 400L93.9 316.7L23.5 269.3C19.1 266.3 16.4 261.3 16.4 256C16.4 250.7 19 245.7 23.4 242.8L93.8 195.4L77.5 112.2L77.3 110.2C77 105.6 78.6 101.1 81.9 97.8C85.7 94 91.1 92.4 96.3 93.4L179.5 109.7L226.8 39.3L228 37.7C231 34.2 235.4 32.2 240.1 32.2zM240.3 208C248.9 208 256.9 210.3 263.9 214.2C254.2 226.1 247 240.1 243.2 255.5C228.2 263.6 215 274.7 204.4 287.8C196.9 279.3 192.2 268.2 192.2 256C192.2 229.5 213.7 208 240.2 208z"/></svg>